# Rhino

v 39.667469024658203 5.0999999046325684 0
v 0 5.0999999046325684 0
v 39.667469024658203 5.0999999046325684 -5.1612730026245117
v 23.107139587402344 5.0999999046325684 -5.1612730026245117
v 23.107139587402344 5.0999999046325684 -16.352659225463867
v 9.9163084030151367 5.0999999046325684 -23.247867584228516
v 0 5.0999999046325684 -4.2775382995605469
v 4 5.0999999046325684 -2
v 4 5.0999999046325684 -7.6124281883239746
v 10.762250900268555 5.0999999046325684 -20.548908233642578
v 21.107139587402344 5.0999999046325684 -15.141352653503418
v 21.107139587402344 5.0999999046325684 -2
vt 14.198910713195801 8.899500846862793
vt 4.28204345703125 8.899500846862793
vt 14.198910713195801 10.1898193359375
vt 10.058828353881836 10.1898193359375
vt 10.058828353881836 12.987666130065918
vt 6.7611207962036133 14.711467742919922
vt 4.28204345703125 9.9688854217529297
vt 5.28204345703125 9.399500846862793
vt 5.28204345703125 10.802607536315918
vt 6.9726061820983887 14.036727905273438
vt 9.5588283538818359 12.684839248657227
vt 9.5588283538818359 9.399500846862793
vn 0 1 0
vn 0 1 0
vn 0 1 0
vn 0 1 0
vn 0 1 0
vn 0 1 0
vn 0 1 0
vn 0 1 0
vn 0 1 0
vn 0 1 0
vn 0 1 0
vn 0 1 0
f 7/7/7 2/2/2 8/8/8
f 12/12/12 8/8/8 2/2/2
f 9/9/9 7/7/7 8/8/8
f 6/6/6 9/9/9 10/10/10
f 5/5/5 6/6/6 10/10/10
f 7/7/7 9/9/9 6/6/6
f 4/4/4 12/12/12 1/1/1
f 2/2/2 1/1/1 12/12/12
f 3/3/3 4/4/4 1/1/1
f 11/11/11 4/4/4 5/5/5
f 10/10/10 11/11/11 5/5/5
f 4/4/4 11/11/11 12/12/12
